<svg width="24" height="24" viewBox="0 0 24 24" fill="none" xmlns="http://www.w3.org/2000/svg">
<path d="M16.926 17.985L21.219 22.281C21.3598 22.4218 21.5508 22.5009 21.75 22.5009C21.9491 22.5009 22.1401 22.4218 22.281 22.281C22.4218 22.1402 22.5009 21.9492 22.5009 21.75C22.5009 21.5508 22.4218 21.3598 22.281 21.219L2.78097 1.719C2.71124 1.64927 2.62846 1.59396 2.53735 1.55622C2.44624 1.51848 2.34859 1.49905 2.24997 1.49905C2.15136 1.49905 2.0537 1.51848 1.9626 1.55622C1.87149 1.59396 1.7887 1.64927 1.71897 1.719C1.64924 1.78873 1.59392 1.87152 1.55619 1.96263C1.51845 2.05374 1.49902 2.15139 1.49902 2.25C1.49902 2.34862 1.51845 2.44627 1.55619 2.53738C1.59392 2.62849 1.64924 2.71127 1.71897 2.781L5.56797 6.6285L2.32047 9.513C2.06398 9.72402 1.85739 9.98921 1.71552 10.2895C1.57366 10.5899 1.50005 10.9179 1.49997 11.25V14.25C1.49997 14.7425 1.59697 15.2301 1.78542 15.6851C1.97388 16.14 2.2501 16.5534 2.59832 16.9017C3.30158 17.6049 4.25541 18 5.24997 18H6.74997C7.24243 18 7.73006 17.903 8.18503 17.7146C8.64 17.5261 9.0534 17.2499 9.40162 16.9017C9.74984 16.5534 10.0261 16.14 10.2145 15.6851C10.403 15.2301 10.5 14.7425 10.5 14.25V13.5H12.4395L13.5135 14.574C13.5896 15.4535 13.9736 16.2779 14.5978 16.9021C15.2221 17.5264 16.0465 17.9103 16.926 17.9865M7.93947 9H5.15697L6.62997 7.6905L7.93947 9ZM3.25497 10.6845L3.28497 10.6575C3.41791 10.5543 3.58169 10.4988 3.74997 10.5H8.24997C8.44888 10.5 8.63965 10.579 8.7803 10.7197C8.92095 10.8603 8.99997 11.0511 8.99997 11.25V14.25C8.99997 14.8467 8.76292 15.419 8.34096 15.841C7.919 16.2629 7.34671 16.5 6.74997 16.5H5.24997C4.65323 16.5 4.08094 16.2629 3.65898 15.841C3.23702 15.419 2.99997 14.8467 2.99997 14.25V11.25C2.99987 11.1429 3.0227 11.037 3.06695 10.9395C3.11119 10.8419 3.17432 10.755 3.25497 10.6845ZM15 11.82L13.6425 10.4625C13.8029 10.0331 14.0907 9.66286 14.4674 9.40149C14.844 9.14012 15.2915 9.00004 15.75 9H18.843L15.465 6H14.25C14.0511 6 13.8603 5.92098 13.7196 5.78033C13.579 5.63968 13.5 5.44891 13.5 5.25C13.5 5.05109 13.579 4.86032 13.7196 4.71967C13.8603 4.57902 14.0511 4.5 14.25 4.5H15.75C15.9335 4.49995 16.1107 4.56719 16.248 4.689L21.6795 9.513C22.1805 9.9255 22.5 10.551 22.5 11.25V14.25C22.5 15.624 21.762 16.824 20.6595 17.478L19.539 16.3575C19.9681 16.1968 20.338 15.9089 20.5991 15.5323C20.8602 15.1556 21 14.7083 21 14.25V11.25C21.0001 11.1429 20.9772 11.037 20.933 10.9395C20.8888 10.8419 20.8241 10.755 20.7435 10.6845H20.742L20.712 10.6575C20.5798 10.555 20.4172 10.4995 20.25 10.5H15.75C15.5511 10.5 15.3603 10.579 15.2196 10.7197C15.079 10.8603 15 11.0511 15 11.25V11.82ZM7.81797 4.635L9.18297 5.9985H9.74997C9.94888 5.9985 10.1396 5.91948 10.2803 5.77883C10.421 5.63818 10.5 5.44741 10.5 5.2485C10.5 5.04959 10.421 4.85882 10.2803 4.71817C10.1396 4.57752 9.94888 4.4985 9.74997 4.4985H8.24997C8.09534 4.49838 7.94446 4.54606 7.81797 4.635Z" fill="#83959E"/>
</svg>
