<svg width="24" height="24" viewBox="0 0 24 24" fill="none" xmlns="http://www.w3.org/2000/svg">
<path d="M3 4.628L12.0045 2L21 4.628V10.017C21 15.681 17.375 20.2095 12.0015 22C6.6265 20.21 3 15.68 3 10.0145V4.628Z" stroke="#83959E" stroke-width="2" stroke-linejoin="round"/>
<path d="M12 11.5C13.3807 11.5 14.5 10.3807 14.5 9C14.5 7.61929 13.3807 6.5 12 6.5C10.6193 6.5 9.5 7.61929 9.5 9C9.5 10.3807 10.6193 11.5 12 11.5Z" stroke="#83959E" stroke-width="2" stroke-linecap="round" stroke-linejoin="round"/>
<path d="M16 15.5C16 14.4391 15.5786 13.4217 14.8284 12.6716C14.0783 11.9214 13.0609 11.5 12 11.5C10.9391 11.5 9.92172 11.9214 9.17157 12.6716C8.42143 13.4217 8 14.4391 8 15.5" stroke="#83959E" stroke-width="2" stroke-linecap="round" stroke-linejoin="round"/>
</svg>
