<svg width="48" height="48" viewBox="0 0 48 48" fill="none" xmlns="http://www.w3.org/2000/svg">
<path d="M0 4C0 1.79086 1.79086 0 4 0H44C46.2091 0 48 1.79086 48 4V44C48 46.2091 46.2091 48 44 48H4C1.79086 48 0 46.2091 0 44V4Z" fill="#F5F5F5"/>
<path d="M38.1668 7.33337H9.8335C9.17045 7.33337 8.53457 7.59677 8.06573 8.06561C7.59689 8.53445 7.3335 9.17033 7.3335 9.83337V38.1667C7.3335 38.8297 7.59689 39.4656 8.06573 39.9345C8.53457 40.4033 9.17045 40.6667 9.8335 40.6667H38.1668C38.8299 40.6667 39.4658 40.4033 39.9346 39.9345C40.4034 39.4656 40.6668 38.8297 40.6668 38.1667V9.83337C40.6668 9.17033 40.4034 8.53445 39.9346 8.06561C39.4658 7.59677 38.8299 7.33337 38.1668 7.33337Z" stroke="#D8D8D8" stroke-width="2.5" stroke-linejoin="round"/>
<path d="M14 19.8784C16.7706 16.5451 20.1039 14.8784 24 14.8784C27.8956 14.8784 31.2289 16.5451 34 19.8784" stroke="#D8D8D8" stroke-width="2.5" stroke-linecap="round"/>
<path d="M24 29.8334C24.663 29.8334 25.2989 29.57 25.7678 29.1011C26.2366 28.6323 26.5 27.9964 26.5 27.3334C26.5 26.6703 26.2366 26.0344 25.7678 25.5656C25.2989 25.0968 24.663 24.8334 24 24.8334C23.337 24.8334 22.7011 25.0968 22.2322 25.5656C21.7634 26.0344 21.5 26.6703 21.5 27.3334C21.5 27.9964 21.7634 28.6323 22.2322 29.1011C22.7011 29.57 23.337 29.8334 24 29.8334Z" fill="#D8D8D8"/>
<path d="M19.8335 21.5L24.0068 27.3333" stroke="#D8D8D8" stroke-width="2.5" stroke-linecap="round"/>
</svg>
