<svg width="48" height="48" viewBox="0 0 48 48" fill="none" xmlns="http://www.w3.org/2000/svg">
<path d="M0 4C0 1.79086 1.79086 0 4 0H44C46.2091 0 48 1.79086 48 4V44C48 46.2091 46.2091 48 44 48H4C1.79086 48 0 46.2091 0 44V4Z" fill="#EDF6E8"/>
<path d="M40.165 32.0825C40.2436 32.1773 40.3028 32.2866 40.3391 32.4043C40.3754 32.522 40.3882 32.6456 40.3768 32.7682C40.3653 32.8908 40.3298 33.01 40.2723 33.1189C40.2148 33.2278 40.1364 33.3242 40.0415 33.4028C37.4056 35.5903 35.0415 36.3716 32.8931 36.3716C30.0509 36.3716 27.5603 35.0184 25.2462 33.7622C21.1837 31.5559 17.6775 29.6513 12.5415 33.9184C12.3482 34.0772 12.0998 34.1526 11.8508 34.1281C11.6019 34.1036 11.3729 33.9813 11.2142 33.788C11.0555 33.5947 10.9801 33.3462 11.0045 33.0973C11.029 32.8484 11.1513 32.6193 11.3447 32.4606C17.4587 27.3903 22.0712 29.8966 26.14 32.1075C30.2087 34.3184 33.7087 36.2184 38.8447 31.9513C38.9399 31.8731 39.0497 31.8145 39.1676 31.7788C39.2856 31.7431 39.4094 31.731 39.532 31.7431C39.6547 31.7553 39.7737 31.7916 39.8823 31.8498C39.9909 31.908 40.087 31.9871 40.165 32.0825ZM38.8447 23.2059C33.7087 27.4669 30.2009 25.5606 26.14 23.3622C22.079 21.1638 17.4587 18.6388 11.3447 23.7106C11.153 23.8693 11.0322 24.0977 11.0089 24.3455C10.9856 24.5932 11.0617 24.8401 11.2204 25.0317C11.3792 25.2234 11.6075 25.3441 11.8553 25.3674C12.103 25.3907 12.3499 25.3147 12.5415 25.1559C17.6775 20.895 21.1853 22.7997 25.2462 24.9997C27.5603 26.2497 30.0509 27.6106 32.8931 27.6106C35.0478 27.6106 37.4056 26.8294 40.0415 24.6419C40.233 24.4832 40.3536 24.2549 40.3767 24.0073C40.3999 23.7597 40.3237 23.513 40.165 23.3216C40.0063 23.1301 39.778 23.0096 39.5304 22.9864C39.2828 22.9633 39.0361 23.0394 38.8447 23.1981V23.2059ZM12.5415 16.3997C17.6775 12.1388 21.1853 14.045 25.2462 16.2434C27.5681 17.5075 30.0509 18.8669 32.8931 18.8669C35.0478 18.8669 37.4056 18.0856 40.0415 15.8981C40.1363 15.8195 40.2147 15.7231 40.2722 15.6142C40.3297 15.5053 40.3652 15.3861 40.3767 15.2635C40.3882 15.1409 40.3754 15.0173 40.339 14.8996C40.3027 14.782 40.2436 14.6726 40.165 14.5778C40.0864 14.483 39.9899 14.4046 39.881 14.3471C39.7721 14.2896 39.653 14.2541 39.5304 14.2427C39.4078 14.2312 39.2841 14.244 39.1665 14.2803C39.0488 14.3166 38.9395 14.3758 38.8447 14.4544C33.7087 18.7153 30.2009 16.8091 26.14 14.6106C22.079 12.4122 17.4587 9.88563 11.3447 14.9606C11.1532 15.1193 11.0326 15.3476 11.0095 15.5952C10.9863 15.8428 11.0625 16.0895 11.2212 16.2809C11.3799 16.4724 11.6082 16.593 11.8558 16.6161C12.1034 16.6393 12.3501 16.5631 12.5415 16.4044V16.3997Z" fill="#9EDA7D"/>
</svg>
