<svg width="48" height="48" viewBox="0 0 48 48" fill="none" xmlns="http://www.w3.org/2000/svg">
<path d="M0 4C0 1.79086 1.79086 0 4 0H44C46.2091 0 48 1.79086 48 4V44C48 46.2091 46.2091 48 44 48H4C1.79086 48 0 46.2091 0 44V4Z" fill="#F5F5F5"/>
<path d="M14.3397 21.9276L24.8359 7.55398C25.6584 6.4304 27.1948 7.12908 27.1948 8.626V19.7516C27.1948 20.6494 27.7986 21.3747 28.5423 21.3747H33.6486C34.8089 21.3747 35.4266 23.0227 34.6601 24.0734L24.1639 38.4453C23.3414 39.5689 21.805 38.8702 21.805 37.3733V26.2477C21.805 25.3499 21.2012 24.6246 20.4575 24.6246H15.3494C14.1892 24.6246 13.5732 22.9765 14.3397 21.9276Z" stroke="#D8D8D8" stroke-width="2.5" stroke-linecap="round" stroke-linejoin="round"/>
</svg>
