<svg width="48" height="48" viewBox="0 0 48 48" fill="none" xmlns="http://www.w3.org/2000/svg">
<path d="M0 4C0 1.79086 1.79086 0 4 0H44C46.2091 0 48 1.79086 48 4V44C48 46.2091 46.2091 48 44 48H4C1.79086 48 0 46.2091 0 44V4Z" fill="#EDF6E8"/>
<path d="M39 22.3333C39 31.5833 32.6 40.2333 24 42.3333C15.4 40.2333 9 31.5833 9 22.3333V12.3333L24 5.66663L39 12.3333V22.3333ZM24 39C30.25 37.3333 35.6667 29.9 35.6667 22.7V14.5L24 9.29996L12.3333 14.5V22.7C12.3333 29.9 17.75 37.3333 24 39Z" fill="#9EDA7D"/>
</svg>
