<svg width="48" height="48" viewBox="0 0 48 48" fill="none" xmlns="http://www.w3.org/2000/svg">
<path d="M0 4C0 1.79086 1.79086 0 4 0H44C46.2091 0 48 1.79086 48 4V44C48 46.2091 46.2091 48 44 48H4C1.79086 48 0 46.2091 0 44V4Z" fill="#F5F5F5"/>
<path d="M19.8333 30.6667C16.8056 30.6667 14.2433 29.6178 12.1467 27.52C10.05 25.4222 9.00111 22.86 9 19.8333C8.99889 16.8067 10.0478 14.2444 12.1467 12.1467C14.2456 10.0489 16.8078 9 19.8333 9C22.8589 9 25.4217 10.0489 27.5217 12.1467C29.6217 14.2444 30.67 16.8067 30.6667 19.8333C30.6667 21.0556 30.4722 22.2083 30.0833 23.2917C29.6944 24.375 29.1667 25.3333 28.5 26.1667L37.8333 35.5C38.1389 35.8056 38.2917 36.1944 38.2917 36.6667C38.2917 37.1389 38.1389 37.5278 37.8333 37.8333C37.5278 38.1389 37.1389 38.2917 36.6667 38.2917C36.1944 38.2917 35.8056 38.1389 35.5 37.8333L26.1667 28.5C25.3333 29.1667 24.375 29.6944 23.2917 30.0833C22.2083 30.4722 21.0556 30.6667 19.8333 30.6667ZM19.8333 27.3333C21.9167 27.3333 23.6878 26.6044 25.1467 25.1467C26.6056 23.6889 27.3344 21.9178 27.3333 19.8333C27.3322 17.7489 26.6033 15.9783 25.1467 14.5217C23.69 13.065 21.9189 12.3356 19.8333 12.3333C17.7478 12.3311 15.9772 13.0606 14.5217 14.5217C13.0661 15.9828 12.3367 17.7533 12.3333 19.8333C12.33 21.9133 13.0594 23.6844 14.5217 25.1467C15.9839 26.6089 17.7544 27.3378 19.8333 27.3333Z" fill="#D8D8D8"/>
</svg>
