<svg width="24" height="24" viewBox="0 0 24 24" fill="none" xmlns="http://www.w3.org/2000/svg">
<path d="M12 6C13.1046 6 14 5.10457 14 4C14 2.89543 13.1046 2 12 2C10.8954 2 10 2.89543 10 4C10 5.10457 10.8954 6 12 6Z" fill="#9EB5C3"/>
<path d="M14.948 7.684C14.8817 7.48496 14.7545 7.3118 14.5844 7.18905C14.4142 7.0663 14.2098 7.00016 14 7H10C9.79021 7.00016 9.58578 7.0663 9.41565 7.18905C9.24551 7.3118 9.1183 7.48496 9.052 7.684L7.052 13.684L8.827 14.277L8 18H10V22H14V18H16L15.173 14.276L16.948 13.683L14.948 7.684Z" fill="#9EB5C3"/>
</svg>
