<svg width="32" height="32" viewBox="0 0 32 32" fill="none" xmlns="http://www.w3.org/2000/svg">
<path d="M21.3333 29.3334C19.1111 29.3334 17.2222 28.5556 15.6667 27.0001C14.1111 25.4445 13.3333 23.5556 13.3333 21.3334C13.3333 19.1112 14.1111 17.2223 15.6667 15.6667C17.2222 14.1112 19.1111 13.3334 21.3333 13.3334C23.5556 13.3334 25.4444 14.1112 27 15.6667C28.5556 17.2223 29.3333 19.1112 29.3333 21.3334C29.3333 23.5556 28.5556 25.4445 27 27.0001C25.4444 28.5556 23.5556 29.3334 21.3333 29.3334ZM21.3333 26.6667C22.8 26.6667 24.0556 26.1445 25.1 25.1001C26.1444 24.0556 26.6667 22.8001 26.6667 21.3334C26.6667 19.8667 26.1444 18.6112 25.1 17.5667C24.0556 16.5223 22.8 16.0001 21.3333 16.0001C19.8667 16.0001 18.6111 16.5223 17.5667 17.5667C16.5222 18.6112 16 19.8667 16 21.3334C16 22.8001 16.5222 24.0556 17.5667 25.1001C18.6111 26.1445 19.8667 26.6667 21.3333 26.6667ZM5.33333 26.6667C4.6 26.6667 3.97244 26.4059 3.45067 25.8841C2.92889 25.3623 2.66756 24.7343 2.66667 24.0001V13.8667C2.66667 13.689 2.68356 13.5112 2.71733 13.3334C2.75111 13.1556 2.80089 12.9779 2.86667 12.8001L5.53333 6.66675H5.33333C4.95556 6.66675 4.63911 6.53875 4.384 6.28275C4.12889 6.02675 4.00089 5.7103 4 5.33341V4.00008C4 3.6223 4.128 3.30586 4.384 3.05075C4.64 2.79564 4.95644 2.66764 5.33333 2.66675H14.6667C15.0444 2.66675 15.3613 2.79475 15.6173 3.05075C15.8733 3.30675 16.0009 3.62319 16 4.00008V5.33341C16 5.71119 15.872 6.02808 15.616 6.28408C15.36 6.54008 15.0436 6.66764 14.6667 6.66675H14.4667L16.6667 11.7334C16.2444 11.9556 15.8444 12.189 15.4667 12.4334C15.0889 12.6779 14.7333 12.9556 14.4 13.2667L11.6 6.66675H8.4L5.33333 13.8667V24.0001H11C11.1111 24.4667 11.2609 24.9281 11.4493 25.3841C11.6378 25.8401 11.8658 26.2676 12.1333 26.6667H5.33333ZM21.3333 12.0001C20.4 12.0001 19.6111 11.6779 18.9667 11.0334C18.3222 10.389 18 9.60008 18 8.66675C18 7.73341 18.3222 6.94453 18.9667 6.30008C19.6111 5.65564 20.4 5.33341 21.3333 5.33341V12.0001ZM21.3333 12.0001C21.3333 11.0667 21.6556 10.2779 22.3 9.63341C22.9444 8.98897 23.7333 8.66675 24.6667 8.66675C25.6 8.66675 26.3889 8.98897 27.0333 9.63341C27.6778 10.2779 28 11.0667 28 12.0001H21.3333Z" fill="#5DAF2E"/>
</svg>
