<svg width="24" height="24" viewBox="0 0 24 24" fill="none" xmlns="http://www.w3.org/2000/svg">
<g clip-path="url(#clip0_717_1411)">
<path fill-rule="evenodd" clip-rule="evenodd" d="M17.9349 1.44319C17.9837 1.31116 18.0059 1.17081 18.0004 1.03018C17.9949 0.889543 17.9618 0.751367 17.9029 0.623541C17.844 0.495714 17.7605 0.38074 17.6572 0.285184C17.5538 0.189627 17.4327 0.115359 17.3007 0.0666199C17.1686 0.0178807 17.0283 -0.00437501 16.8876 0.00112338C16.747 0.00662177 16.6088 0.0397666 16.481 0.0986655C16.2229 0.217617 16.0225 0.434249 15.9241 0.700906C15.1342 2.84331 15.1832 5.2051 16.0612 7.3129V7.31462C16.495 8.34623 16.6763 9.46651 16.5898 10.5823C16.5033 11.698 16.1517 12.777 15.5641 13.7295L10.1607 8.32262C11.015 7.69547 11.9972 7.26464 13.0372 7.06091C13.3128 7.00331 13.5545 6.83962 13.7103 6.60519C13.8661 6.37077 13.9234 6.08445 13.8698 5.80812C13.8162 5.5318 13.6561 5.28766 13.4239 5.12849C13.1918 4.96931 12.9063 4.90788 12.6292 4.95748C10.8271 5.30854 9.16897 6.18471 7.86351 7.47576L7.85323 7.48433C6.82312 8.52818 6.05731 9.80304 5.61957 11.2027C5.18184 12.6024 5.08484 14.0864 5.33666 15.5312C3.78652 15.2496 2.18945 15.3839 0.708086 15.9203C0.575714 15.9681 0.454038 16.0414 0.350006 16.1361C0.245974 16.2309 0.161623 16.3452 0.101769 16.4726C0.0419146 16.5999 0.00772991 16.7378 0.00116636 16.8784C-0.0053972 17.0189 0.0157889 17.1594 0.063515 17.2918C0.111241 17.4241 0.184573 17.5458 0.279323 17.6498C0.374072 17.7539 0.488385 17.8382 0.615734 17.8981C0.743083 17.9579 0.880974 17.9921 1.02153 17.9987C1.16209 18.0052 1.30257 17.9841 1.43494 17.9363C2.93839 17.3944 4.58436 17.3974 6.0858 17.9449C6.60352 19.438 6.60009 21.07 6.06352 22.5666C6.01601 22.6991 5.99507 22.8396 6.00189 22.9802C6.0087 23.1208 6.04314 23.2587 6.10323 23.3859C6.16332 23.5132 6.2479 23.6274 6.35212 23.722C6.45634 23.8166 6.57817 23.8897 6.71066 23.9372C6.84314 23.9847 6.98369 24.0056 7.12427 23.9988C7.26484 23.992 7.4027 23.9576 7.52997 23.8975C7.65724 23.8374 7.77143 23.7528 7.86601 23.6486C7.9606 23.5444 8.03373 23.4225 8.08123 23.29C8.85236 21.1362 8.78257 18.7707 7.8858 16.666C7.45219 15.6264 7.27356 14.498 7.36481 13.3752C7.45606 12.2525 7.81456 11.1678 8.41037 10.2118L13.8327 15.634C12.9687 16.2855 11.9641 16.7329 10.8944 16.942C10.7563 16.9691 10.6248 17.023 10.5076 17.1008C10.3903 17.1786 10.2895 17.2788 10.2109 17.3955C10.1324 17.5123 10.0776 17.6434 10.0497 17.7813C10.0218 17.9193 10.0214 18.0614 10.0484 18.1995C10.0754 18.3376 10.1293 18.469 10.2072 18.5863C10.285 18.7036 10.3851 18.8043 10.5019 18.8829C10.7377 19.0416 11.0269 19.1 11.3058 19.0455C13.1159 18.6913 14.7803 17.8084 16.0887 16.5083L16.0955 16.5015C17.1256 15.4604 17.892 14.1881 18.3306 12.7907C18.7693 11.3934 18.8675 9.91139 18.6172 8.46833C20.1704 8.75119 21.7835 8.62262 23.2921 8.08091C23.5542 7.98082 23.7665 7.78193 23.8836 7.52698C24.0006 7.27202 24.013 6.98132 23.918 6.71734C23.8231 6.45336 23.6284 6.23715 23.3758 6.11516C23.1231 5.99317 22.8327 5.97512 22.5669 6.06491C21.0493 6.60991 19.3889 6.60688 17.8732 6.05633C17.3644 4.5577 17.3856 2.9298 17.9332 1.44491" fill="#9EB5C3"/>
</g>
<defs>
<clipPath id="clip0_717_1411">
<rect width="24" height="24" fill="white"/>
</clipPath>
</defs>
</svg>
