<svg width="32" height="32" viewBox="0 0 32 32" fill="none" xmlns="http://www.w3.org/2000/svg">
<path d="M19.625 2C20.7441 2.00009 21.8251 2.40601 22.6677 3.14249C23.5103 3.87896 24.0572 4.896 24.207 6.005C25.222 6.04758 26.1999 6.39832 27.0106 7.01053C27.8213 7.62275 28.4263 8.46738 28.745 9.43198C29.0637 10.3966 29.0811 11.4354 28.7947 12.4101C28.5083 13.3848 27.9318 14.2491 27.142 14.888C28.0155 15.4249 28.7368 16.1767 29.2371 17.0716C29.7374 17.9665 30.0001 18.9747 30 20V20.5C29.9996 21.8283 29.5186 23.1117 28.6456 24.1129C27.7727 25.1141 26.5669 25.7656 25.251 25.947L25.082 26.491C24.7643 27.508 24.1299 28.397 23.2715 29.0282C22.4131 29.6594 21.3755 29.9999 20.31 30H20C19.2237 29.9999 18.4581 29.819 17.7638 29.4717C17.0695 29.1244 16.4656 28.6202 16 27.999C15.5344 28.6202 14.9305 29.1244 14.2362 29.4717C13.5419 29.819 12.7763 29.9999 12 30H11.69C10.6245 29.9999 9.58688 29.6594 8.72847 29.0282C7.87006 28.397 7.23573 27.508 6.918 26.491L6.749 25.947C5.4331 25.7656 4.22731 25.1141 3.35438 24.1129C2.48144 23.1117 2.00036 21.8283 2 20.5V20C1.99992 18.9747 2.26258 17.9665 2.7629 17.0716C3.26323 16.1767 3.98454 15.4249 4.858 14.888C4.06817 14.2491 3.49169 13.3848 3.20532 12.4101C2.91895 11.4354 2.93627 10.3966 3.25498 9.43198C3.57369 8.46738 4.17866 7.62275 4.98936 7.01053C5.80005 6.39832 6.778 6.04758 7.793 6.005C7.91446 5.10604 8.29766 4.26265 8.89488 3.57986C9.4921 2.89706 10.277 2.405 11.1518 2.16496C12.0266 1.92492 12.9526 1.94748 13.8147 2.22985C14.6768 2.51222 15.4367 3.04192 16 3.753C16.4327 3.20617 16.9837 2.76439 17.6115 2.4608C18.2393 2.15721 18.9276 1.99967 19.625 2ZM12.375 4C11.6788 4 11.0111 4.27656 10.5188 4.76885C10.0266 5.26113 9.75 5.92881 9.75 6.625V7C9.75 7.26522 9.64464 7.51957 9.45711 7.70711C9.26957 7.89464 9.01522 8 8.75 8H8C7.21784 8.00023 6.46669 8.30592 5.90664 8.85192C5.3466 9.39793 5.02194 10.1411 5.00185 10.923C4.98177 11.7049 5.26786 12.4637 5.79914 13.0377C6.33042 13.6118 7.06488 13.9556 7.846 13.996L8 14H9C9.26522 14 9.51957 14.1054 9.70711 14.2929C9.89464 14.4804 10 14.7348 10 15C10 15.2652 9.89464 15.5196 9.70711 15.7071C9.51957 15.8946 9.26522 16 9 16H8L7.794 16.005C6.7701 16.0578 5.80557 16.5017 5.09955 17.2452C4.39353 17.9886 3.99992 18.9747 4 20V20.5C4 21.4283 4.36875 22.3185 5.02513 22.9749C5.6815 23.6313 6.57174 24 7.5 24C7.68594 24 7.86819 24.0519 8.02629 24.1497C8.18439 24.2476 8.31207 24.3876 8.395 24.554L8.455 24.702L8.827 25.894C9.01752 26.5043 9.39804 27.0378 9.91306 27.4166C10.4281 27.7955 11.0507 27.9999 11.69 28H12C12.7956 28 13.5587 27.6839 14.1213 27.1213C14.6839 26.5587 15 25.7956 15 25V6.625C15 5.92881 14.7234 5.26113 14.2312 4.76885C13.7389 4.27656 13.0712 4 12.375 4ZM19.625 4C18.9288 4 18.2611 4.27656 17.7688 4.76885C17.2766 5.26113 17 5.92881 17 6.625V25C17 25.7956 17.3161 26.5587 17.8787 27.1213C18.4413 27.6839 19.2044 28 20 28H20.31C20.9492 27.9999 21.5717 27.7957 22.0867 27.417C22.6017 27.0384 22.9823 26.5051 23.173 25.895L23.546 24.702L23.606 24.554C23.6889 24.3877 23.8164 24.2478 23.9743 24.15C24.1322 24.0521 24.3142 24.0002 24.5 24C25.4283 24 26.3185 23.6313 26.9749 22.9749C27.6313 22.3185 28 21.4283 28 20.5V20C28.0001 18.9747 27.6065 17.9886 26.9005 17.2452C26.1944 16.5017 25.2299 16.0578 24.206 16.005L24 16H23C22.7348 16 22.4804 15.8946 22.2929 15.7071C22.1054 15.5196 22 15.2652 22 15C22 14.7348 22.1054 14.4804 22.2929 14.2929C22.4804 14.1054 22.7348 14 23 14H24L24.154 13.996C24.9351 13.9556 25.6696 13.6118 26.2009 13.0377C26.7321 12.4637 27.0182 11.7049 26.9981 10.923C26.9781 10.1411 26.6534 9.39793 26.0934 8.85192C25.5333 8.30592 24.7822 8.00023 24 8H23.25C22.9848 8 22.7304 7.89464 22.5429 7.70711C22.3554 7.51957 22.25 7.26522 22.25 7V6.625C22.25 6.28028 22.1821 5.93894 22.0502 5.62046C21.9183 5.30198 21.7249 5.0126 21.4812 4.76885C21.2374 4.52509 20.948 4.33174 20.6295 4.19982C20.3111 4.0679 19.9697 4 19.625 4Z" fill="#83959E"/>
</svg>
