<svg width="32" height="32" viewBox="0 0 32 32" fill="none" xmlns="http://www.w3.org/2000/svg">
<path d="M7 15H27C27.2652 15 27.5196 15.1054 27.7071 15.2929C27.8946 15.4804 28 15.7348 28 16C28 16.2652 27.8946 16.5196 27.7071 16.7071C27.5196 16.8946 27.2652 17 27 17H7C6.73478 17 6.48043 16.8946 6.29289 16.7071C6.10536 16.5196 6 16.2652 6 16C6 15.7348 6.10536 15.4804 6.29289 15.2929C6.48043 15.1054 6.73478 15 7 15Z" fill="#83959E"/>
<path d="M7.41408 16L15.7081 24.292C15.8959 24.4798 16.0013 24.7344 16.0013 25C16.0013 25.2655 15.8959 25.5202 15.7081 25.708C15.5203 25.8958 15.2656 26.0012 15.0001 26.0012C14.7345 26.0012 14.4799 25.8958 14.2921 25.708L5.29208 16.708C5.19895 16.6151 5.12507 16.5047 5.07465 16.3832C5.02424 16.2618 4.99829 16.1315 4.99829 16C4.99829 15.8684 5.02424 15.7382 5.07465 15.6167C5.12507 15.4952 5.19895 15.3849 5.29208 15.292L14.2921 6.29198C14.4799 6.10421 14.7345 5.99872 15.0001 5.99872C15.2656 5.99872 15.5203 6.10421 15.7081 6.29198C15.8959 6.47975 16.0013 6.73443 16.0013 6.99998C16.0013 7.26553 15.8959 7.52021 15.7081 7.70798L7.41408 16Z" fill="#83959E"/>
</svg>
