<svg width="1024" height="1024" viewBox="0 0 1024 1024" fill="none" xmlns="http://www.w3.org/2000/svg">
<rect width="1024" height="1024" rx="25" fill="white"/>
<path d="M433.6 450C427.439 450 424.359 450 422.006 448.801C419.936 447.746 418.254 446.064 417.199 443.994C416 441.641 416 438.561 416 432.4V430.6C416 424.439 416 421.359 417.199 419.006C418.254 416.936 419.936 415.254 422.006 414.199C424.359 413 427.439 413 433.6 413H589.4C595.561 413 598.641 413 600.994 414.199C603.064 415.254 604.746 416.936 605.801 419.006C607 421.359 607 424.439 607 430.6V432.4C607 438.561 607 441.641 605.801 443.994C604.746 446.064 603.064 447.746 600.994 448.801C598.641 450 595.561 450 589.4 450H433.6Z" fill="black"/>
<path d="M433.6 612C427.439 612 424.359 612 422.006 610.801C419.936 609.746 418.254 608.064 417.199 605.994C416 603.641 416 600.561 416 594.4V592.6C416 586.439 416 583.359 417.199 581.006C418.254 578.936 419.936 577.254 422.006 576.199C424.359 575 427.439 575 433.6 575H589.4C595.561 575 598.641 575 600.994 576.199C603.064 577.254 604.746 578.936 605.801 581.006C607 583.359 607 586.439 607 592.6V594.4C607 600.561 607 603.641 605.801 605.994C604.746 608.064 603.064 609.746 600.994 610.801C598.641 612 595.561 612 589.4 612H433.6Z" fill="black"/>
<path d="M416 430.6C416 424.439 416 421.359 417.199 419.006C418.254 416.936 419.936 415.254 422.006 414.199C424.359 413 427.439 413 433.6 413H435.4C441.561 413 444.641 413 446.994 414.199C449.064 415.254 450.746 416.936 451.801 419.006C453 421.359 453 424.439 453 430.6V586.4C453 592.561 453 595.641 451.801 597.994C450.746 600.064 449.064 601.746 446.994 602.801C444.641 604 441.561 604 435.4 604H433.6C427.439 604 424.359 604 422.006 602.801C419.936 601.746 418.254 600.064 417.199 597.994C416 595.641 416 592.561 416 586.4V430.6Z" fill="black"/>
<path d="M570 432.6C570 426.439 570 423.359 571.199 421.006C572.254 418.936 573.936 417.254 576.006 416.199C578.359 415 581.439 415 587.6 415H589.4C595.561 415 598.641 415 600.994 416.199C603.064 417.254 604.746 418.936 605.801 421.006C607 423.359 607 426.439 607 432.6V588.4C607 594.561 607 597.641 605.801 599.994C604.746 602.064 603.064 603.746 600.994 604.801C598.641 606 595.561 606 589.4 606H587.6C581.439 606 578.359 606 576.006 604.801C573.936 603.746 572.254 602.064 571.199 599.994C570 597.641 570 594.561 570 588.4V432.6Z" fill="black"/>
<path d="M607 639.6C607 633.439 607 630.359 608.199 628.006C609.254 625.936 610.936 624.254 613.006 623.199C615.359 622 618.439 622 624.6 622H781.4C787.561 622 790.641 622 792.994 623.199C795.064 624.254 796.746 625.936 797.801 628.006C799 630.359 799 633.439 799 639.6V793.4C799 799.561 799 802.641 797.801 804.994C796.746 807.064 795.064 808.746 792.994 809.801C790.641 811 787.561 811 781.4 811H624.6C618.439 811 615.359 811 613.006 809.801C610.936 808.746 609.254 807.064 608.199 804.994C607 802.641 607 799.561 607 793.4V639.6Z" fill="black"/>
<path d="M224 233.6C224 227.439 224 224.359 225.199 222.006C226.254 219.936 227.936 218.254 230.006 217.199C232.359 216 235.439 216 241.6 216H398.4C404.561 216 407.641 216 409.994 217.199C412.064 218.254 413.746 219.936 414.801 222.006C416 224.359 416 227.439 416 233.6V387.4C416 393.561 416 396.641 414.801 398.994C413.746 401.064 412.064 402.746 409.994 403.801C407.641 405 404.561 405 398.4 405H241.6C235.439 405 232.359 405 230.006 403.801C227.936 402.746 226.254 401.064 225.199 398.994C224 396.641 224 393.561 224 387.4V233.6Z" fill="black"/>
<path d="M749 432.6C749 426.439 749 423.359 750.199 421.006C751.254 418.936 752.936 417.254 755.006 416.199C757.359 415 760.439 415 766.6 415H781.4C787.561 415 790.641 415 792.994 416.199C795.064 417.254 796.746 418.936 797.801 421.006C799 423.359 799 426.439 799 432.6V594.4C799 600.561 799 603.641 797.801 605.994C796.746 608.064 795.064 609.746 792.994 610.801C790.641 612 787.561 612 781.4 612H766.6C760.439 612 757.359 612 755.006 610.801C752.936 609.746 751.254 608.064 750.199 605.994C749 603.641 749 600.561 749 594.4V432.6Z" fill="black"/>
<path d="M620 432.6C620 426.439 620 423.359 621.199 421.006C622.254 418.936 623.936 417.254 626.006 416.199C628.359 415 631.439 415 637.6 415H652.4C658.561 415 661.641 415 663.994 416.199C666.064 417.254 667.746 418.936 668.801 421.006C670 423.359 670 426.439 670 432.6V532.4C670 538.561 670 541.641 668.801 543.994C667.746 546.064 666.064 547.746 663.994 548.801C661.641 550 658.561 550 652.4 550H637.6C631.439 550 628.359 550 626.006 548.801C623.936 547.746 622.254 546.064 621.199 543.994C620 541.641 620 538.561 620 532.4V432.6Z" fill="black"/>
<path d="M637.6 550C631.439 550 628.359 550 626.006 548.801C623.936 547.746 622.254 546.064 621.199 543.994C620 541.641 620 538.561 620 532.4V517.6C620 511.439 620 508.359 621.199 506.006C622.254 503.936 623.936 502.254 626.006 501.199C628.359 500 631.439 500 637.6 500H781.4C787.561 500 790.641 500 792.994 501.199C795.064 502.254 796.746 503.936 797.801 506.006C799 508.359 799 511.439 799 517.6V532.4C799 538.561 799 541.641 797.801 543.994C796.746 546.064 795.064 547.746 792.994 548.801C790.641 550 787.561 550 781.4 550H637.6Z" fill="black"/>
<path d="M353 432.6C353 426.439 353 423.359 354.199 421.006C355.254 418.936 356.936 417.254 359.006 416.199C361.359 415 364.439 415 370.6 415H385.4C391.561 415 394.641 415 396.994 416.199C399.064 417.254 400.746 418.936 401.801 421.006C403 423.359 403 426.439 403 432.6V594.4C403 600.561 403 603.641 401.801 605.994C400.746 608.064 399.064 609.746 396.994 610.801C394.641 612 391.561 612 385.4 612H370.6C364.439 612 361.359 612 359.006 610.801C356.936 609.746 355.254 608.064 354.199 605.994C353 603.641 353 600.561 353 594.4V432.6Z" fill="black"/>
<path d="M224 432.6C224 426.439 224 423.359 225.199 421.006C226.254 418.936 227.936 417.254 230.006 416.199C232.359 415 235.439 415 241.6 415H256.4C262.561 415 265.641 415 267.994 416.199C270.064 417.254 271.746 418.936 272.801 421.006C274 423.359 274 426.439 274 432.6V532.4C274 538.561 274 541.641 272.801 543.994C271.746 546.064 270.064 547.746 267.994 548.801C265.641 550 262.561 550 256.4 550H241.6C235.439 550 232.359 550 230.006 548.801C227.936 547.746 226.254 546.064 225.199 543.994C224 541.641 224 538.561 224 532.4V432.6Z" fill="black"/>
<path d="M241.6 550C235.439 550 232.359 550 230.006 548.801C227.936 547.746 226.254 546.064 225.199 543.994C224 541.641 224 538.561 224 532.4V517.6C224 511.439 224 508.359 225.199 506.006C226.254 503.936 227.936 502.254 230.006 501.199C232.359 500 235.439 500 241.6 500H385.4C391.561 500 394.641 500 396.994 501.199C399.064 502.254 400.746 503.936 401.801 506.006C403 508.359 403 511.439 403 517.6V532.4C403 538.561 403 541.641 401.801 543.994C400.746 546.064 399.064 547.746 396.994 548.801C394.641 550 391.561 550 385.4 550H241.6Z" fill="black"/>
</svg>
