<svg width="140" height="140" viewBox="0 0 140 140" fill="none" xmlns="http://www.w3.org/2000/svg">
<path d="M73.255 17.395C71.1324 16.6766 68.8325 16.6766 66.71 17.395L27.1833 30.7825C25.8959 31.2007 24.7588 31.9862 23.912 33.0423C23.0653 34.0984 22.5458 35.3791 22.4175 36.7266C20.4516 61.3783 23.8641 79.6075 31.9666 93.38C39.8066 106.709 52.3483 116.398 69.9825 123.62C87.6341 116.398 100.187 106.709 108.027 93.38C116.136 79.6133 119.548 61.3783 117.582 36.7266C117.454 35.3791 116.935 34.0984 116.088 33.0423C115.241 31.9862 114.104 31.2007 112.817 30.7825L73.255 17.395ZM63.9041 9.11165C67.8459 7.77533 72.1178 7.77328 76.0608 9.10582L115.622 22.4933C118.528 23.4611 121.088 25.2582 122.985 27.663C124.881 30.0678 126.033 32.9752 126.297 36.0266C128.357 61.7516 124.897 81.97 115.57 97.8191C106.213 113.715 91.2975 124.641 71.5866 132.405C70.5558 132.811 69.4092 132.811 68.3783 132.405C48.685 124.641 33.775 113.715 24.4241 97.8191C15.1025 81.97 11.6433 61.7458 13.6966 36.0266C13.961 32.9752 15.1126 30.0678 17.0095 27.663C18.9064 25.2582 21.4657 23.4611 24.3716 22.4933L63.9041 9.11165Z" fill="#07C3DC"/>
<path opacity="0.5" d="M70 116.667C99.3533 104.767 113.202 83.895 110.501 44.5259C110.198 40.0517 107.141 36.2659 102.9 34.79L74.7833 25.0017C73.2453 24.4662 71.6285 24.1922 70 24.1909V116.667Z" fill="#07C3DC"/>
</svg>
