<svg width="140" height="140" viewBox="0 0 140 140" fill="none" xmlns="http://www.w3.org/2000/svg">
<path d="M52.5 93.3333C57.4583 97.0083 63.4958 99.1666 70 99.1666C76.5042 99.1666 82.5417 97.0083 87.5 93.3333" stroke="#07C3DC" stroke-width="8" stroke-linecap="round"/>
<path d="M87.5001 70C90.7217 70 93.3334 66.0825 93.3334 61.25C93.3334 56.4175 90.7217 52.5 87.5001 52.5C84.2784 52.5 81.6667 56.4175 81.6667 61.25C81.6667 66.0825 84.2784 70 87.5001 70Z" fill="#07C3DC"/>
<path d="M52.5001 70C55.7217 70 58.3334 66.0825 58.3334 61.25C58.3334 56.4175 55.7217 52.5 52.5001 52.5C49.2784 52.5 46.6667 56.4175 46.6667 61.25C46.6667 66.0825 49.2784 70 52.5001 70Z" fill="#07C3DC"/>
<path d="M12.8334 58.3333C15.1267 47.1261 20.6615 36.8393 28.7504 28.7504C36.8394 20.6615 47.1261 15.1267 58.3334 12.8333M12.8334 81.6666C15.1267 92.8739 20.6615 103.161 28.7504 111.25C36.8394 119.339 47.1261 124.873 58.3334 127.167M127.167 58.3333C124.873 47.1261 119.339 36.8393 111.25 28.7504C103.161 20.6615 92.874 15.1267 81.6667 12.8333M127.167 81.6666C124.873 92.8739 119.339 103.161 111.25 111.25C103.161 119.339 92.874 124.873 81.6667 127.167" stroke="#07C3DC" stroke-width="8" stroke-linecap="round"/>
</svg>
