<svg width="140" height="140" viewBox="0 0 140 140" fill="none" xmlns="http://www.w3.org/2000/svg">
<path d="M81.6492 23.3333C83.7539 23.3333 85.8193 23.9026 87.6267 24.9809C89.4341 26.0591 90.9162 27.6063 91.9159 29.4583L94.7509 34.7083C95.7506 36.5604 97.2327 38.1075 99.0401 39.1858C100.848 40.2641 102.913 40.8333 105.018 40.8333H116.667C119.761 40.8333 122.728 42.0625 124.916 44.2504C127.104 46.4383 128.333 49.4058 128.333 52.5V105C128.333 108.094 127.104 111.062 124.916 113.25C122.728 115.437 119.761 116.667 116.667 116.667H23.3334C20.2392 116.667 17.2718 115.437 15.0838 113.25C12.8959 111.062 11.6667 108.094 11.6667 105V52.5C11.6667 49.4058 12.8959 46.4383 15.0838 44.2504C17.2718 42.0625 20.2392 40.8333 23.3334 40.8333H34.9826C37.085 40.8334 39.1485 40.2654 40.9546 39.1893C42.7608 38.1132 44.2426 36.569 45.2434 34.72L48.0959 29.4466C49.0967 27.5977 50.5785 26.0535 52.3847 24.9773C54.1909 23.9012 56.2543 23.3332 58.3567 23.3333H81.6492Z" stroke="#06AFC6" stroke-width="8" stroke-linecap="round" stroke-linejoin="round"/>
<path d="M70 93.3333C79.665 93.3333 87.5 85.4983 87.5 75.8333C87.5 66.1683 79.665 58.3333 70 58.3333C60.335 58.3333 52.5 66.1683 52.5 75.8333C52.5 85.4983 60.335 93.3333 70 93.3333Z" stroke="#06AFC6" stroke-width="8" stroke-linecap="round" stroke-linejoin="round"/>
</svg>
